HIERARCHY
ROOT Hips
{
	OFFSET 0.000000 0.000000 0.000000 
	CHANNELS 6 Xposition Yposition Zposition Yrotation Zrotation Xrotation 
	JOINT Lumbar
	{
		OFFSET 0.000000 0.000000 0.000000 
		CHANNELS 3 Zrotation Xrotation Yrotation
		JOINT Neck
		{
			OFFSET 0.000000 0.445665 0.000000 
			CHANNELS 3 Zrotation Xrotation Yrotation
			End Site
			{
				OFFSET 0.000000 0.227535 0.000000 
			}
		}
		JOINT RightShoulder
		{
			OFFSET 0.019635 0.377685 0.194865 
			CHANNELS 3 Zrotation Xrotation Yrotation
			JOINT RightElbow
			{
				OFFSET 0.000000 -0.243375 0.000000 
				CHANNELS 2 Zrotation Yrotation
				JOINT RightWrist
				{
					OFFSET 0.000000 -0.264825 0.000000 
					CHANNELS 2 Zrotation Xrotation
					End Site
					{
						OFFSET 0.006600 -0.176220 0.000990 
					}
				}
			}
		}
		JOINT LeftShoulder
		{
			OFFSET 0.019635 0.377685 -0.194865 
			CHANNELS 3 Zrotation Xrotation Yrotation
			JOINT LeftElbow
			{
				OFFSET 0.000000 -0.243375 0.000000 
				CHANNELS 2 Zrotation Yrotation
				JOINT LeftWrist
				{
					OFFSET 0.000000 -0.264825 0.000000 
					CHANNELS 2 Zrotation Xrotation
					End Site
					{
						OFFSET 0.006600 -0.176220 -0.000990 
					}
				}
			}
		}
	}
	JOINT RightHip
	{
		OFFSET 0.052140 -0.069960 0.075570 
		CHANNELS 3 Zrotation Xrotation Yrotation
		JOINT RightKnee
		{
			OFFSET 0.000000 -0.402270 0.000000 
			CHANNELS 1 Zrotation
			JOINT RightAnkle
			{
				OFFSET 0.000000 -0.404085 0.000000 
				CHANNELS 3 Zrotation Xrotation Yrotation
				End Site
				{
					OFFSET 0.204105 -0.089430 0.008415 
				}
			}
		}
	}
	JOINT LeftHip
	{
		OFFSET 0.052140 -0.069960 -0.075570 
		CHANNELS 3 Zrotation Xrotation Yrotation
		JOINT LeftKnee
		{
			OFFSET 0.000000 -0.402270 0.000000 
			CHANNELS 1 Zrotation
			JOINT LeftAnkle
			{
				OFFSET 0.000000 -0.404085 0.000000 
				CHANNELS 3 Zrotation Xrotation Yrotation
				End Site
				{
					OFFSET 0.204105 -0.089430 -0.008415 
				}
			}
		}
	}
}
MOTION
Frames: 22
Frame Time: 0.02
0.00225 0.00014 -0.00179 20.85723 -22.65251 -7.5776 46.1722 2.71541 -5.50249 -5.54694 -1.9364 -0.14454 -21.82199 -11.13407 5.09002 36.46205 90.33468 6.15571 -0.16836 -24.25057 11.01756 -2.89919 41.48008 -119.93371 18.73334 -3.51377 34.21802 -0.39672 -6.26527 -20.74277 -8.38889 -4.58304 -3.1322 37.43282 7.73166 3.45649 -27.02385 -9.48919 5.35092 3.65734
0.00145 0.0001 -0.00114 20.89299 -22.62523 -7.57395 45.99187 2.714 -5.55593 -5.63915 -1.9836 -0.14542 -21.68453 -11.23985 5.18917 36.59714 90.31032 6.18364 -0.17429 -24.2039 11.11568 -3.04834 41.3358 -119.92386 18.75477 -3.49761 34.24937 -0.40224 -6.36643 -20.74396 -8.38786 -4.56939 -3.12707 37.4644 7.73938 3.46597 -27.01242 -9.48594 5.3452 3.65449
0.00066 5e-05 -0.00049 20.92865 -22.59806 -7.57026 45.81162 2.71262 -5.60936 -5.73147 -2.03082 -0.14634 -21.54733 -11.34562 5.28849 36.7322 90.28616 6.21163 -0.18022 -24.15701 11.21394 -3.19798 41.19157 -119.90841 18.77487 -3.4806 34.28087 -0.40786 -6.46772 -20.7452 -8.38683 -4.55573 -3.12193 37.49609 7.74711 3.47578 -27.00101 -9.48267 5.33947 3.65162
-0.00014 1e-05 0.00016 20.96431 -22.57086 -7.56661 45.63177 2.71121 -5.66266 -5.82342 -2.07791 -0.14723 -21.41028 -11.45112 5.3874 36.86694 90.2619 6.2395 -0.18613 -24.11044 11.31183 -3.34683 41.04768 -119.8975 18.79599 -3.46432 34.31214 -0.41339 -6.56865 -20.74639 -8.3858 -4.54211 -3.11681 37.5276 7.75482 3.48528 -26.98961 -9.47942 5.33377 3.64877
-0.00094 -4e-05 0.00081 21.00003 -22.54358 -7.56303 45.45202 2.70977 -5.7159 -5.91523 -2.12492 -0.14807 -21.27302 -11.55654 5.48599 37.00156 90.23739 6.26727 -0.19205 -24.06417 11.40939 -3.49479 40.90388 -119.89478 18.81901 -3.44931 34.34324 -0.41877 -6.66923 -20.74753 -8.38479 -4.52851 -3.11171 37.55897 7.76249 3.49434 -26.97818 -9.4762 5.32809 3.64594
-0.00174 -9e-05 0.00146 21.03557 -22.51664 -7.55909 45.27073 2.70852 -5.76972 -6.00867 -2.17254 -0.14912 -21.13594 -11.66304 5.58686 37.13753 90.21396 6.29574 -0.198 -24.01596 11.5091 -3.64794 40.75872 -119.8529 18.83307 -3.42815 34.37557 -0.42489 -6.77198 -20.74897 -8.38371 -4.51475 -3.1065 37.59135 7.77035 3.50574 -26.96683 -9.47281 5.32225 3.64301
-0.00252 -0.00013 0.0021 21.07147 -22.48898 -7.5559 45.09275 2.70687 -5.82233 -6.09844 -2.21892 -0.14976 -20.99872 -11.76719 5.68293 37.27065 90.18841 6.32275 -0.20386 -23.97182 11.60441 -3.79058 40.61651 -119.88848 18.86482 -3.41916 34.40525 -0.42952 -6.87038 -20.74978 -8.38276 -4.50131 -3.1015 37.62155 7.77782 3.51237 -26.95533 -9.46977 5.31673 3.64028
-0.00333 -0.00017 0.00275 21.10697 -22.4621 -7.55198 44.91166 2.70561 -5.87604 -6.19211 -2.26636 -0.15078 -20.86147 -11.87362 5.78361 37.40634 90.16477 6.35115 -0.20983 -23.92373 11.70374 -3.94269 40.47149 -119.85516 18.88087 -3.39935 34.43765 -0.43551 -6.97253 -20.75121 -8.38171 -4.48759 -3.09632 37.65399 7.78564 3.52345 -26.94396 -9.46642 5.31092 3.63736
-0.00415 -0.00022 0.00341 21.1423 -22.43569 -7.54731 44.72685 2.70476 -5.9312 -6.2886 -2.31551 -0.15228 -20.72474 -11.98252 5.88937 37.54554 90.14366 6.38108 -0.21583 -23.87151 11.80826 -4.10751 40.32328 -119.72655 18.87508 -3.36455 34.47234 -0.44328 -7.08044 -20.75326 -8.38045 -4.47344 -3.09086 37.68829 7.79396 3.53983 -26.93279 -9.46263 5.30475 3.6342
-0.00485 -0.00026 0.00402 21.17955 -22.40514 -7.54737 44.56367 2.70136 -5.97834 -6.36301 -2.35608 -0.15106 -20.58669 -12.07626 5.96423 37.66567 90.10859 6.4017 -0.22135 -23.84514 11.88375 -4.20265 40.19412 -120.1128 18.98693 -3.4107 34.49073 -0.44112 -7.15874 -20.75131 -8.38014 -4.46153 -3.08685 37.70928 7.79962 3.52534 -26.92059 -9.46119 5.30064 3.6324
-0.00582 -0.00032 0.00475 21.21213 -22.38425 -7.53719 44.3548 2.70344 -6.04219 -6.48771 -2.41389 -0.15553 -20.45039 -12.20252 6.10527 37.82528 90.10256 6.44228 -0.22809 -23.76295 12.0199 -4.44247 40.02439 -119.43475 18.85583 -3.28955 34.54549 -0.4597 -7.29724 -20.75809 -8.37798 -4.44506 -3.07989 37.75996 7.81074 3.57618 -26.9105 -9.45492 5.29221 3.62777
-0.00752 -0.00047 0.0058 21.23688 -22.38263 -7.50081 44.01865 2.71983 -6.15394 -6.72207 -2.52676 -0.17622 -20.32676 -12.41436 6.42102 38.10023 90.17979 6.53551 -0.23651 -23.53588 12.32943 -5.10276 39.74571 -115.62347 18.0077 -2.67536 34.68532 -0.53765 -7.62222 -20.78701 -8.36954 -4.4143 -3.06376 37.88019 7.83827 3.80634 -26.90683 -9.43413 5.27154 3.61505
-0.0095 -0.00066 0.00698 21.25598 -22.39215 -7.45376 43.63645 2.74189 -6.28198 -7.01247 -2.65552 -0.20253 -20.20312 -12.65937 6.80399 38.41332 90.28505 6.64914 -0.24651 -23.25095 12.69869 -5.90395 39.42625 -110.78179 16.92469 -1.89927 34.86472 -0.63607 -8.00422 -20.82514 -8.35944 -4.37924 -3.04482 38.0327 7.87097 4.102 -26.90518 -9.40876 5.24661 3.59955
-0.01138 -0.00083 0.00813 21.27443 -22.40118 -7.41045 43.27719 2.76177 -6.40141 -7.29539 -2.77198 -0.22585 -20.07472 -12.89185 7.16139 38.70463 90.37573 6.75489 -0.25679 -22.98741 13.03601 -6.62547 39.12336 -106.55182 15.98233 -1.21966 35.03526 -0.72335 -8.34562 -20.86013 -8.35092 -4.3474 -3.02789 38.1779 7.90044 4.36779 -26.90222 -9.38629 5.22386 3.58552
-0.01314 -0.00099 0.00919 21.30658 -22.39052 -7.37204 42.91144 2.77981 -6.52648 -7.50135 -2.90993 -0.25094 -19.96768 -13.11442 7.50006 39.01562 90.47614 6.85498 -0.26264 -22.74554 13.39336 -7.41355 38.82697 -101.71857 14.89733 -0.44377 35.16612 -0.81797 -8.74713 -20.89034 -8.339 -4.31043 -3.00799 38.29104 7.93383 4.63452 -26.90094 -9.36024 5.20001 3.57061
-0.01522 -0.0012 0.01046 21.30869 -22.424 -7.32059 42.54567 2.80323 -6.64305 -7.88229 -3.00684 -0.27375 -19.81461 -13.36454 7.89095 39.29361 90.56056 6.97148 -0.27836 -22.44347 13.72359 -8.09608 38.5095 -97.89219 14.05252 0.17089 35.39058 -0.90272 -9.03946 -20.93317 -8.33366 -4.28284 -2.99344 38.47994 7.96005 4.91435 -26.89662 -9.34072 5.17752 3.5569
-0.01799 -0.00154 0.01216 21.23096 -22.57305 -7.2383 42.21257 2.83839 -6.73737 -8.72007 -2.98669 -0.28834 -19.54734 -13.69036 8.43259 39.4805 90.61477 7.13051 -0.31782 -22.00039 13.96079 -8.45551 38.12667 -97.15233 13.94043 0.29146 35.85124 -0.94985 -8.99305 -21.00477 -8.34809 -4.28491 -2.99596 38.85988 7.96671 5.21547 -26.88369 -9.3394 5.15947 3.54705
-0.02108 -0.00194 0.01406 21.12302 -22.76712 -7.14282 41.87629 2.8791 -6.82168 -9.73398 -2.92459 -0.30053 -19.23122 -14.04121 9.01993 39.63148 90.64846 7.30515 -0.36706 -21.49633 14.16965 -8.70396 37.7279 -97.4534 14.07631 0.24558 36.40777 -0.98711 -8.83804 -21.08966 -8.3691 -4.29621 -3.00373 39.31761 7.96534 5.52541 -26.86778 -9.34527 5.14313 3.5386
-0.02407 -0.00232 0.01591 21.0276 -22.94251 -7.05163 41.52838 2.91835 -6.90705 -10.67597 -2.88164 -0.31419 -18.92918 -14.37561 9.57151 39.79226 90.67737 7.47092 -0.41473 -21.01334 14.39333 -9.00046 37.34678 -97.24049 14.0905 0.28228 36.92774 -1.0327 -8.74938 -21.17074 -8.38614 -4.30136 -3.00792 39.74549 7.96716 5.83294 -26.8528 -9.34814 5.12614 3.5295
-0.02685 -0.00266 0.0176 20.93647 -23.10947 -6.96707 41.23721 2.95321 -7.0074 -11.58711 -2.8391 -0.32653 -18.66196 -14.73298 10.1896 39.98033 90.76508 7.64403 -0.45312 -20.55773 14.60939 -9.30919 36.9175 -97.15693 14.13327 0.29654 37.41663 -1.06371 -8.59537 -21.24194 -8.40672 -4.31406 -3.01672 40.14816 7.97262 6.1437 -26.83885 -9.34859 5.10804 3.52004
-0.03017 -0.00311 0.01968 20.83006 -23.30615 -6.86593 40.82376 2.99859 -7.07437 -12.60174 -2.78524 -0.34089 -18.30995 -15.04756 10.67805 40.1045 90.72722 7.80637 -0.50965 -20.02968 14.83571 -9.56773 36.58879 -97.07391 14.17998 0.31443 37.9961 -1.12128 -8.54542 -21.33774 -8.4222 -4.31397 -3.01762 40.6253 7.96659 6.43932 -26.82305 -9.35726 5.09321 3.5121
-0.03477 -0.0038 0.02268 20.68172 -23.55959 -6.72074 40.10563 3.07105 -7.04781 -13.87514 -2.71403 -0.36194 -17.74061 -15.24196 10.80831 40.0435 90.32837 7.92268 -0.64693 -19.3305 15.08163 -9.68626 36.51177 -96.65857 14.16029 0.39576 38.77132 -1.26491 -8.85916 -21.48996 -8.416 -4.27023 -2.99158 41.25585 7.94894 6.77698 -26.79511 -9.37479 5.08244 3.50443
